<?xml version="1.0" encoding="UTF-8"?>
<svg id="Layer_1" data-name="Layer 1" xmlns="http://www.w3.org/2000/svg" viewBox="0 0 225.93 74.66">
  <defs>
    <style>
      .cls-1 {
        fill: #fff;
      }
    </style>
  </defs>
  <path class="cls-1" d="m74.74,52.32v22.31l-28.41-14.64v-7.66h1.17l-1.17-2.76V13.75l28.41-10.67v22.72c-.09-.1-.18-.21-.28-.3-2.02-2.06-5.2-3.27-9.8-3.27h-14.23v30.1h8.34v-9.12h3.66l6.06,9.12h6.26Zm-40.78-11.87l-3.35-8.56-3.4,8.56h6.75Zm24.81-11.01v7.22h5.5c2.84,0,4.47-1.38,4.47-3.57v-.09c0-2.37-1.72-3.57-4.51-3.57h-5.46Zm15.97,17.94v-8.2c-1.01,1.12-2.3,2-3.81,2.64l3.81,5.56Zm39.37-25.38h8.04l10.39,24.58V.2l-23.75,13.45v20.93l5.31-12.57Zm7.31,18.45l-3.35-8.56-3.4,8.56h6.75Zm-82.86,11.87l-2.19-5.38h-11.61l-2.15,5.38h-8.77l12.81-30.31h8.04l10.65,25.19V13.78l-22.33-6.93L0,65.03l45.34-5.24v-7.46h-6.78Zm87.46,0l-2.19-5.38h-11.61l-2.15,5.38h-1.27v7.55l23.75,6.91v-14.46h-6.52ZM200.93,5.45l-19.99-4.55v43.47l9.46-22.37h8.04l12.81,30.31h-8.94l-2.19-5.38h-11.61l-2.15,5.38h-5.41v13.55l44.99,2.12-25-62.54Zm-9.98,35h6.75l-3.35-8.56-3.4,8.56Zm-42.48-11.82c-2.02,0-3.01.86-3.01,1.93v.09c0,1.38,1.03,1.98,5.2,2.92,3.72.81,6.67,1.83,8.61,3.48v-8.81l-2.38,3.36c-2.75-1.94-5.76-2.97-8.43-2.97Zm31.47,23.69v13.34l-19.66-5.66v-11.6c1.03-1.47,1.61-3.27,1.61-5.36v-.09c0-2.03-.57-3.62-1.61-4.89v-11.23l.79-1.12c-.26-.21-.53-.39-.79-.58v-11.51l19.66-12.51v45.63l-2.36,5.58h2.36Zm-5.45-30.1h-8.38v30.1h8.38v-30.1Zm-24.77,30.62c-5.33,0-10.41-1.68-14.1-4.99l4.64-5.55c2.97,2.37,6.28,3.61,9.76,3.61,2.24,0,3.44-.77,3.44-2.06v-.09c0-1.25-.99-1.94-5.07-2.88-6.41-1.46-11.35-3.27-11.35-9.46v-.09c0-5.59,4.43-9.63,11.65-9.63,4.22,0,7.67.95,10.59,2.75v-10.79L133.54,0v48.95l1.42,3.37h-1.42v14.34l25.73-6.92v-10.15c-2.13,2.09-5.46,3.24-9.56,3.24Zm-41.92-.52v7.64l-32.05,14.7v-22.33h2.38l-2.38-3.47v-10.99c.89-1.45,1.39-3.21,1.39-5.28v-.09c0-2.13-.47-3.92-1.39-5.4V3.05l32.05,10.72v23.18l-6.5,15.38h6.5Zm-10.76-22.79h9.03v-7.31h-26.4v7.31h9.03v22.79h8.34v-22.79Z"/>
</svg>